<svg width="195" height="44" viewBox="0 0 195 44" fill="none" xmlns="http://www.w3.org/2000/svg">
<path d="M26.0132 43.6316V0.788025H53.5555V8.7447H35.194V18.2927H53.5555V26.2494H35.194V43.6316H26.0132Z" fill="#181818"/>
<path d="M55.6968 0.788025H64.8776V35.675H85.6873V43.6316H55.6968V0.788025Z" fill="#181818"/>
<path d="M120.942 43.6316L117.392 31.207H99.9482L96.3983 43.6316H87.8296L100.132 0.788025H108.701L102.274 23.2503H115.127L108.701 0.788025H117.881L130.122 43.6316H120.942Z" fill="#181818"/>
<path d="M185.819 43.6316L182.269 31.207H164.826L161.276 43.6316H152.707L165.009 0.788025H173.578L167.151 23.2503H180.005L173.578 0.788025H182.759L195 43.6316H185.819Z" fill="#181818"/>
<path d="M141.752 43.6316L153.931 0.788025H162.5L150.32 43.6316H141.752ZM129.449 0.788025L141.752 43.6316H132.571L120.269 0.788025H129.449Z" fill="#181818"/>
<rect x="17.4438" y="0.788025" width="6.42654" height="42.8436" fill="#181818"/>
<rect x="10.7109" y="0.788025" width="4.89641" height="42.8436" fill="#181818"/>
<rect x="4.896" y="0.788025" width="3.06026" height="42.8436" fill="#181818"/>
<rect y="0.788025" width="1.53013" height="42.8436" fill="#181818"/>
</svg>
