<svg width="29" height="23" viewBox="0 0 29 23" fill="none" xmlns="http://www.w3.org/2000/svg">
<path d="M2 10C1.17157 10 0.5 10.6716 0.5 11.5C0.5 12.3284 1.17157 13 2 13L2 10ZM28.0607 12.5607C28.6464 11.9749 28.6464 11.0251 28.0607 10.4393L18.5147 0.8934C17.9289 0.307614 16.9792 0.307614 16.3934 0.8934C15.8076 1.47919 15.8076 2.42893 16.3934 3.01472L24.8787 11.5L16.3934 19.9853C15.8076 20.5711 15.8076 21.5208 16.3934 22.1066C16.9792 22.6924 17.9289 22.6924 18.5147 22.1066L28.0607 12.5607ZM2 13L27 13L27 10L2 10L2 13Z" fill="#0BE193"/>
</svg>
