<svg width="13" height="9" viewBox="0 0 13 9" fill="none" xmlns="http://www.w3.org/2000/svg">
<path d="M1.70703 0.652187C1.31646 0.261708 0.683292 0.26178 0.292812 0.652349C-0.0976673 1.04292 -0.0975948 1.67608 0.292974 2.06656L1.70703 0.652187ZM6.27923 6.63739L5.5722 7.34458L6.27931 8.05152L6.98633 7.3445L6.27923 6.63739ZM12.2643 2.06648C12.6549 1.67596 12.6549 1.04279 12.2643 0.652268C11.8738 0.261744 11.2407 0.261744 10.8501 0.652268L12.2643 2.06648ZM0.292974 2.06656L5.5722 7.34458L6.98625 5.9302L1.70703 0.652187L0.292974 2.06656ZM6.98633 7.3445L12.2643 2.06648L10.8501 0.652268L5.57212 5.93029L6.98633 7.3445Z" fill="#E14AE4"/>
</svg>
