<svg width="24" height="24" viewBox="0 0 24 24" fill="none" xmlns="http://www.w3.org/2000/svg">
<path d="M12.7135 12.1044C12.9578 12.1042 13.1923 12.0068 13.365 11.8336L22.0451 3.14907V7.63912C22.0451 7.96882 22.2209 8.27339 22.5062 8.43814C22.7915 8.60289 23.1431 8.60289 23.4283 8.43814C23.7136 8.27339 23.8894 7.96881 23.8894 7.63912V0.922598C23.8894 0.677946 23.7922 0.443174 23.6194 0.27019C23.4465 0.097205 23.2118 0 22.9673 0H16.2541C15.9246 0 15.6202 0.175868 15.4555 0.461299C15.2909 0.74673 15.2909 1.09847 15.4555 1.3839C15.6202 1.66932 15.9246 1.8452 16.2541 1.8452H20.7419L12.0001 10.5297C11.8274 10.7027 11.7305 10.9373 11.7305 11.1817C11.7305 11.4264 11.8274 11.6607 12.0003 11.8337C12.173 12.0067 12.4073 12.1041 12.6518 12.1043L12.7135 12.1044Z" fill="#E14AE4"/>
<path d="M23.0655 12.9899C22.821 12.9899 22.5863 13.0871 22.4134 13.2603C22.2405 13.4333 22.1434 13.6678 22.1434 13.9125V21.5395C22.1434 21.6993 22.08 21.8527 21.967 21.9658C21.854 22.0788 21.7006 22.1423 21.5409 22.1423H2.45909C2.12626 22.1423 1.85659 21.8725 1.85659 21.5395V2.448C1.85659 2.115 2.12624 1.8452 2.45909 1.8452H9.67596C10.0055 1.8452 10.3099 1.66933 10.4746 1.3839C10.6392 1.09847 10.6392 0.746725 10.4746 0.461299C10.3099 0.175874 10.0055 0 9.67596 0H2.45909C1.8068 0 1.18149 0.259276 0.720212 0.720576C0.259146 1.18208 0 1.80771 0 2.46033V21.5397C0 22.1923 0.259146 22.8179 0.720212 23.2794C1.18148 23.7407 1.8068 24 2.45909 24H21.5409C22.1932 24 22.8185 23.7407 23.2798 23.2794C23.7409 22.8179 24 22.1923 24 21.5397V13.9127C24 13.666 23.9012 13.4293 23.7256 13.2559C23.5498 13.0825 23.3121 12.9868 23.0655 12.9901L23.0655 12.9899Z" fill="#E14AE4"/>
</svg>
