<svg width="21" height="24" viewBox="0 0 21 24" fill="none" xmlns="http://www.w3.org/2000/svg">
<path fill-rule="evenodd" clip-rule="evenodd" d="M2.60063 3.42943C3.07313 3.3999 3.4801 3.759 3.50963 4.23149L4.58113 21.3755C4.58133 21.3787 4.58151 21.3818 4.58167 21.385C4.61131 21.9619 4.99433 22.2862 5.44 22.2862H15.2978C15.7391 22.2862 16.1204 21.9691 16.1566 21.3767L17.2282 4.23149C17.2577 3.759 17.6647 3.3999 18.1372 3.42943C18.6097 3.45896 18.9688 3.86594 18.9392 4.33843L17.8678 21.4813C17.8678 21.4813 17.8678 21.4814 17.8678 21.4814C17.7829 22.8701 16.7498 24.0006 15.2978 24.0006H5.44C4.0016 24.0006 2.94427 22.88 2.8698 21.4781L1.79857 4.33843C1.76904 3.86594 2.12814 3.45896 2.60063 3.42943Z" fill="#F2F2F2"/>
<path fill-rule="evenodd" clip-rule="evenodd" d="M0.0820312 4.28493C0.0820312 3.81152 0.465813 3.42773 0.939231 3.42773H19.7976C20.271 3.42773 20.6548 3.81152 20.6548 4.28493C20.6548 4.75835 20.271 5.14213 19.7976 5.14213H0.939231C0.465813 5.14213 0.0820312 4.75835 0.0820312 4.28493Z" fill="#F2F2F2"/>
<path fill-rule="evenodd" clip-rule="evenodd" d="M8.22535 1.7144C8.16935 1.71424 8.11387 1.72515 8.0621 1.7465C8.01033 1.76786 7.96329 1.79924 7.92369 1.83884C7.88409 1.87843 7.85271 1.92547 7.83136 1.97724C7.81 2.02901 7.79909 2.08449 7.79926 2.14049L7.79926 2.14301V3.4288H12.9425V2.14301L12.9425 2.14049C12.9426 2.08449 12.9317 2.02901 12.9104 1.97724C12.889 1.92547 12.8576 1.87843 12.818 1.83884C12.7784 1.79924 12.7314 1.76786 12.6796 1.7465C12.6279 1.72515 12.5724 1.71424 12.5164 1.7144L12.5139 1.71441H8.22786L8.22535 1.7144ZM8.22896 5.50085e-06C7.94745 -0.000632856 7.66859 0.0542944 7.40834 0.161644C7.14767 0.269173 6.91082 0.427178 6.71143 0.626572C6.51203 0.825965 6.35403 1.06281 6.2465 1.32349C6.13915 1.58373 6.08422 1.8626 6.08486 2.1441V4.286C6.08486 4.75942 6.46864 5.1432 6.94206 5.1432H13.7997C14.2731 5.1432 14.6569 4.75942 14.6569 4.286V2.14428C14.6575 1.86271 14.6026 1.58379 14.4952 1.32349C14.3877 1.06281 14.2297 0.825967 14.0303 0.626572C13.8309 0.427176 13.594 0.269172 13.3334 0.161644C13.0731 0.0542946 12.7943 -0.000632856 12.5128 5.50085e-06H8.22896ZM6.48287 6.85815C6.95598 6.84125 7.35322 7.21109 7.37011 7.68421L7.79871 19.685C7.81561 20.1581 7.44577 20.5554 6.97266 20.5723C6.49954 20.5892 6.1023 20.2193 6.08541 19.7462L5.65681 7.7454C5.63991 7.27228 6.00975 6.87505 6.48287 6.85815ZM14.2589 6.85815C14.732 6.87505 15.1018 7.27228 15.0849 7.7454L14.6563 19.7462C14.6394 20.2193 14.2422 20.5892 13.7691 20.5723C13.2959 20.5554 12.9261 20.1581 12.943 19.685L13.3716 7.68421C13.3885 7.21109 13.7857 6.84125 14.2589 6.85815ZM10.3709 6.8576C10.8443 6.8576 11.2281 7.24139 11.2281 7.7148V19.7156C11.2281 20.189 10.8443 20.5728 10.3709 20.5728C9.89744 20.5728 9.51366 20.189 9.51366 19.7156V7.7148C9.51366 7.24139 9.89744 6.8576 10.3709 6.8576Z" fill="#F2F2F2"/>
</svg>
