<svg width="23" height="27" viewBox="0 0 23 27" fill="none" xmlns="http://www.w3.org/2000/svg">
<path fill-rule="evenodd" clip-rule="evenodd" d="M3.43054 4.12478C3.9345 4.09328 4.36859 4.4763 4.40008 4.98026L5.54295 23.2662C5.54316 23.2695 5.54336 23.2729 5.54353 23.2763C5.57514 23.8916 5.98367 24.2375 6.45903 24.2375H16.9734C17.4441 24.2375 17.8508 23.8993 17.8894 23.2674L19.0324 4.98026C19.0639 4.4763 19.498 4.09328 20.0019 4.12478C20.5059 4.15628 20.8889 4.59036 20.8574 5.09433L19.7146 23.379C19.7146 23.379 19.7146 23.3791 19.7146 23.3791C19.624 24.8603 18.5222 26.0661 16.9734 26.0661H6.45903C4.92481 26.0661 3.79706 24.8709 3.71763 23.3756L2.57505 5.09433C2.54356 4.59036 2.92657 4.15628 3.43054 4.12478Z" fill="#181818"/>
<path fill-rule="evenodd" clip-rule="evenodd" d="M0.744629 5.03727C0.744629 4.53231 1.15397 4.12297 1.65892 4.12297H21.7734C22.2784 4.12297 22.6877 4.53231 22.6877 5.03727C22.6877 5.54222 22.2784 5.95156 21.7734 5.95156H1.65892C1.15397 5.95156 0.744629 5.54222 0.744629 5.03727Z" fill="#181818"/>
<path fill-rule="evenodd" clip-rule="evenodd" d="M9.42821 2.29441C9.36848 2.29424 9.3093 2.30587 9.25408 2.32865C9.19886 2.35143 9.14869 2.3849 9.10646 2.42713C9.06422 2.46937 9.03075 2.51954 9.00797 2.57476C8.9852 2.62998 8.97356 2.68916 8.97373 2.74889L8.97374 2.75156V4.12301H14.4595V2.75156L14.4595 2.74889C14.4597 2.68916 14.4481 2.62998 14.4253 2.57476C14.4025 2.51954 14.369 2.46937 14.3268 2.42713C14.2846 2.3849 14.2344 2.35143 14.1792 2.32865C14.1239 2.30587 14.0648 2.29424 14.005 2.29441L14.0024 2.29442H9.43089L9.42821 2.29441ZM9.43205 0.465826C9.1318 0.465145 8.83436 0.523731 8.55678 0.638231C8.27874 0.752922 8.02612 0.921452 7.81345 1.13413C7.60077 1.3468 7.43224 1.59942 7.31755 1.87746C7.20305 2.15504 7.14447 2.45248 7.14515 2.75273V5.0373C7.14515 5.54225 7.55449 5.9516 8.05944 5.9516H15.3738C15.8788 5.9516 16.2881 5.54225 16.2881 5.0373V2.75292C16.2888 2.4526 16.2302 2.1551 16.1157 1.87746C16.001 1.59943 15.8325 1.3468 15.6198 1.13413C15.4071 0.921449 15.1545 0.752921 14.8765 0.638231C14.5989 0.523731 14.3014 0.465145 14.0012 0.465826H9.43205ZM7.56966 7.78077C8.07429 7.76275 8.49799 8.15722 8.51601 8.66185L8.97316 21.462C8.99118 21.9666 8.59671 22.3903 8.09208 22.4083C7.58745 22.4264 7.16375 22.0319 7.14573 21.5273L6.68858 8.72712C6.67056 8.22249 7.06503 7.7988 7.56966 7.78077ZM15.8636 7.78077C16.3682 7.7988 16.7627 8.22249 16.7447 8.72712L16.2875 21.5273C16.2695 22.0319 15.8458 22.4264 15.3412 22.4083C14.8365 22.3903 14.4421 21.9666 14.4601 21.462L14.9172 8.66185C14.9353 8.15722 15.359 7.76275 15.8636 7.78077ZM11.7166 7.78019C12.2216 7.78019 12.6309 8.18953 12.6309 8.69449V21.4946C12.6309 21.9996 12.2216 22.4089 11.7166 22.4089C11.2117 22.4089 10.8023 21.9996 10.8023 21.4946V8.69449C10.8023 8.18953 11.2117 7.78019 11.7166 7.78019Z" fill="#181818"/>
</svg>
