<svg width="25" height="25" viewBox="0 0 25 25" fill="none" xmlns="http://www.w3.org/2000/svg">
<path fill-rule="evenodd" clip-rule="evenodd" d="M4.1957 5.53956C3.82847 5.53956 3.47628 5.68545 3.2166 5.94512C2.95693 6.20479 2.81105 6.55698 2.81105 6.92422V20.7707C2.81105 21.138 2.95693 21.4902 3.2166 21.7498C3.47628 22.0095 3.82847 22.1554 4.1957 22.1554H18.0422C18.2241 22.1554 18.4041 22.1196 18.5721 22.05C18.7401 21.9804 18.8928 21.8784 19.0213 21.7498C19.1499 21.6213 19.2519 21.4686 19.3215 21.3006C19.3911 21.1326 19.4269 20.9526 19.4269 20.7707V10.1551C19.4269 9.64526 19.8402 9.23197 20.35 9.23197C20.8598 9.23197 21.2731 9.64526 21.2731 10.1551V20.7707C21.2731 21.195 21.1895 21.6152 21.0272 22.0071C20.8648 22.3991 20.6268 22.7553 20.3268 23.0553C20.0268 23.3553 19.6706 23.5933 19.2786 23.7557C18.8866 23.918 18.4665 24.0016 18.0422 24.0016H4.1957C3.33882 24.0016 2.51704 23.6612 1.91114 23.0553C1.30524 22.4494 0.964844 21.6276 0.964844 20.7707V6.92422C0.964844 6.06734 1.30524 5.24556 1.91114 4.63966C2.51704 4.03375 3.33882 3.69336 4.1957 3.69336H13.8583C14.3681 3.69336 14.7814 4.10665 14.7814 4.61646C14.7814 5.12628 14.3681 5.53956 13.8583 5.53956H4.1957Z" fill="#F2F2F2"/>
<path d="M24.7308 0.30291C24.6465 0.210277 24.5443 0.135699 24.4303 0.0836819C24.3164 0.0316649 24.1931 0.00328922 24.0679 0.000269365C23.9426 -0.00275049 23.8181 0.0196482 23.7018 0.0661121C23.5855 0.112576 23.4798 0.18214 23.3911 0.270601L22.6775 0.980813C22.591 1.06736 22.5424 1.18471 22.5424 1.30707C22.5424 1.42943 22.591 1.54678 22.6775 1.63333L23.3317 2.28643C23.3746 2.32951 23.4256 2.3637 23.4817 2.38703C23.5378 2.41036 23.598 2.42237 23.6588 2.42237C23.7196 2.42237 23.7798 2.41036 23.836 2.38703C23.8921 2.3637 23.9431 2.32951 23.986 2.28643L24.6817 1.5941C25.0337 1.24274 25.0666 0.67042 24.7308 0.30291ZM21.2345 2.42316L10.8196 12.8196C10.7565 12.8825 10.7106 12.9606 10.6864 13.0463L10.2046 14.4812C10.1931 14.5201 10.1923 14.5614 10.2022 14.6008C10.2122 14.6402 10.2327 14.6761 10.2614 14.7048C10.2901 14.7335 10.326 14.7539 10.3654 14.7639C10.4047 14.7739 10.4461 14.7731 10.485 14.7616L11.9187 14.2798C12.0045 14.2556 12.0825 14.2097 12.1454 14.1466L22.5419 3.7305C22.6381 3.63329 22.692 3.50206 22.692 3.3653C22.692 3.22855 22.6381 3.09731 22.5419 3.0001L21.9678 2.42316C21.8705 2.3261 21.7386 2.27159 21.6012 2.27159C21.4637 2.27159 21.3319 2.3261 21.2345 2.42316V2.42316Z" fill="#F2F2F2"/>
</svg>
