<svg width="26" height="27" viewBox="0 0 26 27" fill="none" xmlns="http://www.w3.org/2000/svg">
<path fill-rule="evenodd" clip-rule="evenodd" d="M3.58388 6.37359C3.19218 6.37359 2.81651 6.5292 2.53953 6.80618C2.26255 7.08316 2.10695 7.45882 2.10695 7.85053V22.6199C2.10695 23.0116 2.26255 23.3873 2.53953 23.6643C2.81651 23.9412 3.19218 24.0969 3.58388 24.0969H18.3533C18.5472 24.0969 18.7393 24.0586 18.9185 23.9844C19.0977 23.9102 19.2605 23.8014 19.3976 23.6643C19.5348 23.5271 19.6436 23.3643 19.7178 23.1851C19.792 23.0059 19.8302 22.8139 19.8302 22.6199V11.2967C19.8302 10.7529 20.271 10.3121 20.8148 10.3121C21.3586 10.3121 21.7995 10.7529 21.7995 11.2967V22.6199C21.7995 23.0725 21.7103 23.5206 21.5371 23.9387C21.3639 24.3568 21.1101 24.7367 20.7901 25.0567C20.4701 25.3767 20.0902 25.6306 19.6721 25.8038C19.254 25.977 18.8058 26.0661 18.3533 26.0661H3.58388C2.6699 26.0661 1.79335 25.703 1.14706 25.0567C0.500775 24.4104 0.137695 23.5339 0.137695 22.6199V7.85053C0.137695 6.93655 0.500775 6.05999 1.14706 5.41371C1.79335 4.76742 2.6699 4.40434 3.58388 4.40434H13.8905C14.4342 4.40434 14.8751 4.84517 14.8751 5.38897C14.8751 5.93276 14.4342 6.37359 13.8905 6.37359H3.58388Z" fill="#181818"/>
<path d="M25.4881 0.788919C25.3982 0.690112 25.2892 0.610563 25.1676 0.555079C25.0461 0.499596 24.9146 0.469329 24.781 0.466108C24.6475 0.462887 24.5146 0.486778 24.3906 0.536339C24.2665 0.585899 24.1538 0.6601 24.0592 0.754457L23.2979 1.512C23.2057 1.60432 23.1539 1.72949 23.1539 1.86001C23.1539 1.99052 23.2057 2.11569 23.2979 2.20801L23.9958 2.90463C24.0415 2.95059 24.0959 2.98706 24.1558 3.01194C24.2157 3.03683 24.2799 3.04964 24.3447 3.04964C24.4096 3.04964 24.4738 3.03683 24.5337 3.01194C24.5935 2.98706 24.6479 2.95059 24.6937 2.90463L25.4358 2.16616C25.8112 1.79139 25.8463 1.18092 25.4881 0.788919ZM21.7589 3.05048L10.6498 14.1398C10.5825 14.2069 10.5335 14.2902 10.5077 14.3817L9.99381 15.9122C9.9815 15.9537 9.98063 15.9978 9.99128 16.0397C10.0019 16.0817 10.0237 16.12 10.0544 16.1507C10.085 16.1813 10.1233 16.2031 10.1653 16.2138C10.2073 16.2244 10.2514 16.2235 10.2929 16.2112L11.8221 15.6974C11.9136 15.6715 11.9969 15.6226 12.064 15.5552L23.1533 4.44496C23.2559 4.34126 23.3135 4.20128 23.3135 4.05541C23.3135 3.90954 23.2559 3.76956 23.1533 3.66587L22.541 3.05048C22.4372 2.94695 22.2966 2.88881 22.1499 2.88881C22.0033 2.88881 21.8627 2.94695 21.7589 3.05048Z" fill="#181818"/>
</svg>
