<svg width="1280" height="682" viewBox="0 0 1280 682" fill="none" xmlns="http://www.w3.org/2000/svg">
<path fill-rule="evenodd" clip-rule="evenodd" d="M1256.54 162.427C1278.11 124.882 1284.1 91.7166 1272.5 65.1297C1260.9 38.5428 1232.51 20.3814 1190.31 10.663C1148.16 0.955237 1092.64 -0.21846 1027.55 6.81785C959.521 14.1718 881.156 30.4791 796.868 55.2704C819.214 138.765 741.913 302.58 602.135 454.074C504.712 559.663 398.885 635.481 314.909 666.462C434.473 646.162 577.903 602.624 726.324 537.857C901.245 461.526 1049.83 370.224 1148.67 284.367C1198.09 241.43 1234.99 199.932 1256.54 162.427ZM798.668 88.9979C798.821 76.8336 797.594 65.735 794.95 55.8359C718.532 78.4051 637.283 107.93 554.482 144.063C476.15 178.245 403.098 215.429 337.431 253.783C266.609 334.96 214.117 418.191 185.53 489.438C169.818 528.596 161.368 564.033 160.999 593.463C160.63 622.894 168.334 646.087 184.658 661.148C194.01 669.776 205.794 675.371 219.665 678.062C230.548 677.333 241.751 676.346 253.253 675.103C269.425 673.354 286.181 671.1 303.461 668.347C319.993 662.893 337.504 655.569 355.743 646.488C431.269 608.882 518.902 541.334 600.665 452.717C682.429 364.1 742.72 271.325 774.138 193.023C789.849 153.865 798.299 118.428 798.668 88.9979ZM553.682 142.23C636.558 106.065 717.895 76.5065 794.413 53.9091C790.581 40.718 784.145 29.7421 775.009 21.313C758.686 6.25188 734.949 0.435151 705.643 3.16705C676.337 5.89885 641.694 17.1674 603.924 35.9735C528.399 73.579 440.765 141.127 359.002 229.744C353.08 236.162 347.271 242.601 341.578 249.056C405.982 211.719 477.332 175.547 553.682 142.23ZM776.365 19.8431C785.814 28.5611 792.415 39.864 796.331 53.3438C1042.16 -18.9583 1237.87 -19.228 1274.33 64.3298C1298.84 120.489 1246.66 203.633 1142.96 291.91C1183.97 264.531 1222.83 255.896 1249.27 272.614C1300.6 305.077 1285.66 420.839 1215.89 531.176C1146.12 641.513 1047.94 704.643 996.601 672.18C945.265 639.717 960.21 523.955 1029.98 413.618C1051.87 379.01 1076.54 349.047 1101.7 325.221C1005.33 399.214 875.692 474.859 727.123 539.691C573.889 606.558 425.914 650.841 303.935 670.297C271.571 680.954 242.82 684.522 219.542 680.074C107.099 687.567 28.2884 667.581 6.47405 617.591C-30.6812 532.445 108.429 385.27 336.139 252.221C343.096 244.252 350.229 236.303 357.532 228.387C521.302 50.89 708.82 -42.4784 776.365 19.8431ZM228.884 679.395C248.35 677.862 268.774 675.533 290.04 672.422C277.33 675.935 265.284 678.244 254.024 679.294C245.112 680.125 236.714 680.165 228.884 679.395ZM183.302 662.618C191.445 670.131 201.332 675.382 212.71 678.495C164.951 681.242 123.602 678.882 90.4959 671.257C48.2988 661.539 19.909 643.378 8.30713 616.791C-3.29472 590.204 2.69756 557.039 24.2698 519.493C45.8183 481.989 82.7119 440.49 132.138 397.554C185.498 351.2 253.36 303.259 332.039 256.944C185.846 426.271 119.363 603.624 183.302 662.618ZM1248.2 274.305C1272.82 289.872 1282.03 325.815 1276.01 372.436C1270.01 418.878 1248.96 475.128 1214.2 530.107C1179.43 585.086 1137.64 628.22 1098.25 653.546C1058.71 678.97 1022.29 686.058 997.67 670.49C973.052 654.922 963.841 618.979 969.859 572.358C975.855 525.917 996.906 469.666 1031.67 414.687C1066.44 359.708 1108.23 316.575 1147.62 291.248C1187.16 265.824 1223.58 258.737 1248.2 274.305Z" fill="#BCF369"/>
</svg>
