<svg width="27" height="24" viewBox="0 0 27 24" fill="none" xmlns="http://www.w3.org/2000/svg">
<path d="M14.5345 0.155382C14.145 0.155382 13.7612 0.166839 13.3716 0.178296C13.1368 0.143926 12.9706 0.41889 12.9936 0.625113C12.9535 1.71351 13.0165 2.79619 12.9764 3.88459C12.9363 4.78968 12.3806 5.60311 11.6646 6.11867C11.1261 6.49102 10.4616 6.58267 9.87157 6.82899C10.0033 7.67107 10.3356 8.50169 11.0058 9.05162C12.2832 10.1858 14.4715 9.97963 15.4854 8.59335C16.4993 7.44194 15.9723 5.83225 16.1327 4.45743C16.4421 3.94187 17.1409 4.31422 17.5477 3.93041C17.181 2.58996 16.6827 1.21514 15.6974 0.20121C15.3078 0.166839 14.924 0.149654 14.5345 0.155382ZM3.34689 0.16684C1.25602 2.04576 0.265004 5.05891 0.849303 7.80855C1.26748 10.014 2.65948 11.9903 4.55559 13.1818C4.6988 12.9355 4.80191 12.672 4.65297 12.397C3.62759 9.37241 4.50404 5.82079 6.78395 3.59816C6.80113 2.53841 6.82977 1.47292 6.77822 0.41889L6.57772 0.189753C5.50078 0.132469 4.42384 0.189753 3.34689 0.16684ZM22.5486 0.224124L22.3309 0.607928C22.6173 1.61613 22.9782 2.60715 23.1042 3.64972C23.7286 7.45912 22.6746 11.5091 20.2973 14.5394C18.3439 17.0714 15.5255 18.916 12.4207 19.6664C9.56223 20.3767 6.49753 20.1476 3.75361 19.0821C3.68487 19.168 3.5302 19.3399 3.46146 19.4258C6.32567 22.2499 10.4902 23.6877 14.4772 23.1779C17.7768 22.8285 20.916 21.1787 23.0928 18.6696C25.1722 16.321 26.4038 13.2219 26.4496 10.0827C26.5814 6.45665 25.155 2.76754 22.5486 0.224124Z" fill="#F2F2F2"/>
</svg>
