<svg width="48" height="49" viewBox="0 0 48 49" fill="none" xmlns="http://www.w3.org/2000/svg">
<path fill-rule="evenodd" clip-rule="evenodd" d="M24 48.4375C37.2548 48.4375 48 37.6923 48 24.4375C48 11.1827 37.2548 0.4375 24 0.4375C10.7452 0.4375 0 11.1827 0 24.4375C0 37.6923 10.7452 48.4375 24 48.4375ZM24.2697 12.466C24.7345 12.4523 25.1926 12.4388 25.6575 12.4388C26.1292 12.4319 26.5939 12.4527 27.0656 12.4943C28.2586 13.722 28.862 15.3866 29.3059 17.0097C29.0798 17.223 28.7792 17.2434 28.4839 17.2634C28.1359 17.287 27.7953 17.3101 27.5927 17.6478C27.5329 18.1607 27.552 18.7007 27.5713 19.2431C27.6146 20.4609 27.6583 21.691 26.8089 22.6556C25.5813 24.3341 22.9317 24.5838 21.385 23.2105C20.5734 22.5446 20.1711 21.5389 20.0116 20.5193C20.2669 20.4127 20.5336 20.3301 20.8008 20.2473C21.2815 20.0984 21.7636 19.949 22.1826 19.6592C23.0496 19.035 23.7224 18.0501 23.7709 16.9542C23.7952 16.2952 23.7883 15.6381 23.7814 14.9809C23.7744 14.3237 23.7675 13.6665 23.7918 13.0076C23.764 12.7579 23.9652 12.4249 24.2495 12.4666L24.2697 12.466ZM9.08736 21.7054C8.37989 18.3761 9.57982 14.7277 12.1115 12.4527C12.6484 12.4641 13.1853 12.4591 13.7223 12.454C14.4893 12.4468 15.2564 12.4396 16.0234 12.4804L16.2662 12.7579C16.3208 13.8754 16.301 15.0037 16.2813 16.1285C16.2785 16.2882 16.2757 16.4479 16.2731 16.6074C13.5126 19.2986 12.4513 23.5989 13.6929 27.2611C13.8732 27.5941 13.7484 27.9131 13.575 28.2114C11.2791 26.7687 9.59369 24.3757 9.08736 21.7054ZM35.0975 12.9868L35.3611 12.522C38.517 15.6016 40.244 20.0685 40.0845 24.459C40.029 28.2599 38.5378 32.0123 36.02 34.8561C33.3843 37.8941 29.5833 39.8916 25.5882 40.3147C20.7607 40.932 15.7182 39.1911 12.2502 35.7716C12.2918 35.7196 12.3594 35.6416 12.4271 35.5635C12.4947 35.4855 12.5623 35.4075 12.6039 35.3555C15.9263 36.6456 19.6371 36.923 23.0982 36.063C26.8575 35.1543 30.27 32.9209 32.6352 29.8552C35.5137 26.186 36.7899 21.2823 36.0339 16.6698C35.9181 15.7121 35.6386 14.7903 35.3591 13.8681C35.2701 13.5747 35.1812 13.2814 35.0975 12.9868Z" fill="#0BE193"/>
</svg>
