<svg width="30" height="30" viewBox="0 0 30 30" fill="none" xmlns="http://www.w3.org/2000/svg">
<path d="M20.6692 2.81076C22.2802 2.81557 23.8238 3.45765 24.9629 4.59677C26.102 5.73589 26.7441 7.27949 26.7489 8.89045V21.0485C26.7441 22.6595 26.102 24.2031 24.9629 25.3422C23.8238 26.4813 22.2802 27.1234 20.6692 27.1282H8.51117C6.90022 27.1234 5.35662 26.4813 4.2175 25.3422C3.07838 24.2031 2.4363 22.6595 2.43148 21.0485V8.89045C2.4363 7.27949 3.07838 5.73589 4.2175 4.59677C5.35662 3.45765 6.90022 2.81557 8.51117 2.81076H20.6692ZM20.6692 0.379272H8.51117C3.82993 0.379272 0 4.2092 0 8.89045V21.0485C0 25.7298 3.82993 29.5597 8.51117 29.5597H20.6692C25.3505 29.5597 29.1804 25.7298 29.1804 21.0485V8.89045C29.1804 4.2092 25.3505 0.379272 20.6692 0.379272Z" fill="black"/>
<path d="M22.4931 8.89047C22.1324 8.89047 21.7798 8.78351 21.4799 8.58311C21.1799 8.38271 20.9462 8.09788 20.8081 7.76463C20.6701 7.43137 20.634 7.06467 20.7044 6.7109C20.7747 6.35712 20.9484 6.03215 21.2035 5.77709C21.4585 5.52203 21.7835 5.34833 22.1373 5.27796C22.4911 5.20759 22.8578 5.24371 23.191 5.38175C23.5243 5.51978 23.8091 5.75354 24.0095 6.05346C24.2099 6.35338 24.3169 6.70599 24.3169 7.0667C24.3174 7.30634 24.2706 7.54373 24.1791 7.76523C24.0876 7.98674 23.9533 8.18799 23.7838 8.35745C23.6144 8.52691 23.4131 8.66122 23.1916 8.7527C22.9701 8.84417 22.7327 8.89099 22.4931 8.89047ZM14.5903 10.1059C15.5522 10.1059 16.4925 10.3911 17.2924 10.9256C18.0922 11.46 18.7156 12.2196 19.0837 13.1083C19.4518 13.997 19.5481 14.9749 19.3604 15.9184C19.1728 16.8618 18.7096 17.7284 18.0294 18.4086C17.3492 19.0888 16.4826 19.552 15.5391 19.7397C14.5957 19.9273 13.6178 19.831 12.729 19.4629C11.8403 19.0948 11.0807 18.4714 10.5463 17.6716C10.0119 16.8718 9.72665 15.9314 9.72665 14.9695C9.72803 13.68 10.2409 12.4437 11.1527 11.5319C12.0645 10.6201 13.3008 10.1073 14.5903 10.1059ZM14.5903 7.67441C13.1474 7.67441 11.737 8.10226 10.5373 8.90385C9.33766 9.70545 8.40263 10.8448 7.85048 12.1778C7.29833 13.5108 7.15386 14.9776 7.43534 16.3927C7.71683 17.8078 8.41162 19.1077 9.43186 20.1279C10.4521 21.1482 11.752 21.843 13.1671 22.1244C14.5822 22.4059 16.049 22.2615 17.382 21.7093C18.715 21.1572 19.8543 20.2221 20.6559 19.0225C21.4575 17.8228 21.8854 16.4123 21.8854 14.9695C21.8854 13.0347 21.1168 11.1792 19.7487 9.81109C18.3806 8.44299 16.5251 7.67441 14.5903 7.67441Z" fill="black"/>
</svg>
