<svg width="25" height="24" viewBox="0 0 25 24" fill="none" xmlns="http://www.w3.org/2000/svg">
<path d="M13.2135 12.1044C13.4578 12.1042 13.6923 12.0068 13.865 11.8336L22.5451 3.14907V7.63911C22.5451 7.96882 22.7209 8.27339 23.0062 8.43814C23.2915 8.60289 23.6431 8.60289 23.9283 8.43814C24.2136 8.27339 24.3894 7.96881 24.3894 7.63911V0.922598C24.3894 0.677946 24.2922 0.443174 24.1194 0.27019C23.9465 0.097205 23.7118 0 23.4673 0H16.7541C16.4246 0 16.1202 0.175868 15.9555 0.461299C15.7909 0.74673 15.7909 1.09847 15.9555 1.3839C16.1202 1.66932 16.4246 1.8452 16.7541 1.8452H21.2419L12.5001 10.5297C12.3274 10.7027 12.2305 10.9373 12.2305 11.1817C12.2305 11.4264 12.3274 11.6607 12.5003 11.8337C12.673 12.0067 12.9073 12.1041 13.1518 12.1043L13.2135 12.1044Z" fill="#F2F2F2"/>
<path d="M23.5655 12.9899C23.321 12.9899 23.0863 13.0871 22.9134 13.2603C22.7405 13.4333 22.6434 13.6678 22.6434 13.9125V21.5395C22.6434 21.6993 22.58 21.8527 22.467 21.9658C22.354 22.0788 22.2006 22.1423 22.0409 22.1423H2.95909C2.62626 22.1423 2.35659 21.8725 2.35659 21.5395V2.448C2.35659 2.115 2.62624 1.8452 2.95909 1.8452H10.176C10.5055 1.8452 10.8099 1.66933 10.9746 1.3839C11.1392 1.09847 11.1392 0.746725 10.9746 0.461299C10.8099 0.175874 10.5055 0 10.176 0H2.95909C2.3068 0 1.68149 0.259276 1.22021 0.720576C0.759146 1.18208 0.5 1.80771 0.5 2.46033V21.5397C0.5 22.1923 0.759146 22.8179 1.22021 23.2794C1.68148 23.7407 2.3068 24 2.95909 24H22.0409C22.6932 24 23.3185 23.7407 23.7798 23.2794C24.2409 22.8179 24.5 22.1923 24.5 21.5397V13.9127C24.5 13.666 24.4012 13.4293 24.2256 13.2559C24.0498 13.0825 23.8121 12.9868 23.5655 12.9901L23.5655 12.9899Z" fill="#F2F2F2"/>
</svg>
