<svg width="18" height="24" viewBox="0 0 18 24" fill="none" xmlns="http://www.w3.org/2000/svg">
<path d="M16.5085 0H0.86887C0.638466 0 0.417366 0.0903077 0.254455 0.251018C0.0915442 0.411728 0 0.629842 0 0.857135V23.1426C0.000775777 23.3118 0.052559 23.4771 0.148368 23.6173C0.244177 23.7577 0.379939 23.867 0.538779 23.9313C0.696844 23.9969 0.871393 24.0147 1.03994 23.9827C1.20848 23.9508 1.36363 23.87 1.48582 23.7512L8.68851 16.637L15.8912 23.7512C16.0553 23.9116 16.2771 24.0011 16.5081 23.9998C16.6222 24.0026 16.7353 23.9791 16.8382 23.9313C16.9971 23.867 17.1328 23.7577 17.2286 23.6173C17.3245 23.4771 17.3762 23.3118 17.377 23.1426V0.857135C17.377 0.629842 17.2855 0.411728 17.1226 0.251018C16.9597 0.0903077 16.7385 0 16.5081 0H16.5085ZM15.6397 21.0767L9.30585 14.8196C9.14274 14.6574 8.92068 14.5661 8.6889 14.5661C8.45713 14.5661 8.23507 14.6574 8.07195 14.8196L1.73814 21.0767V1.71427H15.6401L15.6397 21.0767Z" fill="#F2F2F2"/>
</svg>
