<svg width="18" height="24" viewBox="0 0 18 24" fill="none" xmlns="http://www.w3.org/2000/svg">
<path d="M16.821 0H1.18137C0.950966 0 0.729866 0.0903077 0.566955 0.251018C0.404044 0.411728 0.3125 0.629842 0.3125 0.857135V23.1426C0.313276 23.3118 0.365059 23.4771 0.460868 23.6173C0.556677 23.7577 0.692439 23.867 0.851279 23.9313C1.00934 23.9969 1.18389 24.0147 1.35244 23.9827C1.52098 23.9508 1.67614 23.87 1.79832 23.7512L9.00101 16.637L16.2037 23.7512C16.3678 23.9116 16.5896 24.0011 16.8206 23.9998C16.9347 24.0026 17.0478 23.9791 17.1507 23.9313C17.3096 23.867 17.4453 23.7577 17.5411 23.6173C17.637 23.4771 17.6887 23.3118 17.6895 23.1426V0.857135C17.6895 0.629842 17.598 0.411728 17.4351 0.251018C17.2721 0.0903077 17.0514 0 16.821 0ZM15.9522 21.0767L9.61835 14.8196C9.45524 14.6574 9.23318 14.5661 9.0014 14.5661C8.76963 14.5661 8.54757 14.6574 8.38445 14.8196L2.05064 21.0767V1.71427H15.9526L15.9522 21.0767Z" fill="#F2F2F2"/>
<path d="M15.9522 21.0767L9.61835 14.8196C9.45524 14.6574 9.23318 14.5661 9.0014 14.5661C8.76963 14.5661 8.54757 14.6574 8.38445 14.8196L2.05064 21.0767V1.71427H15.9526L15.9522 21.0767Z" fill="#F2F2F2"/>
</svg>
