<svg width="136" height="30" viewBox="0 0 136 30" fill="none" xmlns="http://www.w3.org/2000/svg">
<path d="M18.0898 30V0H37.2459V5.57143H24.4752V12.2571H37.2459V17.8286H24.4752V30H18.0898Z" fill="#F2F2F2"/>
<path d="M38.7383 0H45.1236V24.4286H59.5971V30H38.7383V0Z" fill="#F2F2F2"/>
<path d="M84.1158 30L81.6468 21.3H69.5146L67.0456 30H61.0859L69.6423 0H75.602L71.1322 15.7286H80.0717L75.602 0H81.9873L90.5012 30H84.1158Z" fill="#F2F2F2"/>
<path d="M129.241 30L126.772 21.3H114.64L112.171 30H106.211L114.767 0H120.727L116.257 15.7286H125.197L120.727 0H127.112L135.626 30H129.241Z" fill="#F2F2F2"/>
<path d="M98.5902 30L107.061 0H113.021L104.55 30H98.5902ZM90.0338 0L98.5902 30H92.2048L83.6484 0H90.0338Z" fill="#F2F2F2"/>
<rect x="12.1328" width="4.46975" height="30" fill="#F2F2F2"/>
<rect x="7.44922" width="3.40553" height="30" fill="#F2F2F2"/>
<rect x="3.40625" width="2.12845" height="30" fill="#F2F2F2"/>
<rect width="1.06423" height="30" fill="#F2F2F2"/>
</svg>
