<svg width="186" height="41" viewBox="0 0 186 41" fill="none" xmlns="http://www.w3.org/2000/svg">
<rect x="0.58252" y="0.227051" width="1.45317" height="40.6886" fill="#F2F2F2"/>
<rect x="5.23267" y="0.227051" width="2.90633" height="40.6886" fill="#F2F2F2"/>
<rect x="10.7546" y="0.227051" width="4.65013" height="40.6886" fill="#F2F2F2"/>
<rect x="17.1484" y="0.227051" width="6.10329" height="40.6886" fill="#F2F2F2"/>
<path d="M135.205 40.9157L146.772 0.227051H154.91L143.343 40.9157H135.205ZM123.521 0.227051L135.205 40.9157H126.486L114.802 0.227051H123.521Z" fill="#F2F2F2"/>
<path d="M177.055 40.9157L173.684 29.116H157.117L153.746 40.9157H145.608L157.292 0.227051H165.43L159.326 21.5595H171.533L165.43 0.227051H174.149L185.774 40.9157H177.055Z" fill="#F2F2F2"/>
<path d="M115.441 40.9157L112.07 29.116H95.5037L92.1324 40.9157H83.9946L95.6781 0.227051H103.816L97.7125 21.5595H109.919L103.816 0.227051H112.535L124.16 40.9157H115.441Z" fill="#F2F2F2"/>
<path d="M53.4783 0.227051H62.1973V33.3592H81.9603V40.9157H53.4783V0.227051Z" fill="#F2F2F2"/>
<path d="M25.2859 40.9157V0.227051H51.4429V7.78351H34.0049V16.8513H51.4429V24.4077H34.0049V40.9157H25.2859Z" fill="#F2F2F2"/>
</svg>
