<svg width="26" height="24" viewBox="0 0 26 24" fill="none" xmlns="http://www.w3.org/2000/svg">
<path fill-rule="evenodd" clip-rule="evenodd" d="M15.6316 4.5167C15.6316 5.97798 14.4652 7.16258 13.0263 7.16258C11.5875 7.16258 10.4211 5.97798 10.4211 4.5167C10.4211 3.05542 11.5875 1.87082 13.0263 1.87082C14.4652 1.87082 15.6316 3.05542 15.6316 4.5167ZM17.4737 4.5167C17.4737 7.01121 15.4825 9.03341 13.0263 9.03341C12.5846 9.03341 12.1579 8.96801 11.7552 8.84622L7.54856 16.2459C8.18154 16.8714 8.63173 17.6867 8.80999 18.6013H17.19C17.5939 16.5291 19.3936 14.9666 21.5526 14.9666C24.0088 14.9666 26 16.9888 26 19.4833C26 21.9778 24.0088 24 21.5526 24C19.4309 24 17.6562 22.491 17.2122 20.4722H8.78782C8.34383 22.491 6.56911 24 4.44737 24C1.99115 24 0 21.9778 0 19.4833C0 16.9888 1.99115 14.9666 4.44737 14.9666C4.98975 14.9666 5.50945 15.0652 5.99004 15.2457L10.1372 7.95066C9.18346 7.12224 8.57895 5.89117 8.57895 4.5167C8.57895 2.0222 10.5701 0 13.0263 0C15.4825 0 17.4737 2.0222 17.4737 4.5167ZM4.44737 22.1292C5.88622 22.1292 7.05263 20.9446 7.05263 19.4833C7.05263 18.022 5.88622 16.8374 4.44737 16.8374C3.00852 16.8374 1.84211 18.022 1.84211 19.4833C1.84211 20.9446 3.00852 22.1292 4.44737 22.1292ZM21.5526 22.1292C22.9915 22.1292 24.1579 20.9446 24.1579 19.4833C24.1579 18.022 22.9915 16.8374 21.5526 16.8374C20.1138 16.8374 18.9474 18.022 18.9474 19.4833C18.9474 20.9446 20.1138 22.1292 21.5526 22.1292Z" fill="#F2F2F2"/>
</svg>
