<svg width="27" height="24" viewBox="0 0 27 24" fill="none" xmlns="http://www.w3.org/2000/svg">
<path fill-rule="evenodd" clip-rule="evenodd" d="M15.655 4.5167C15.655 5.97798 14.4886 7.16258 13.0498 7.16258C11.6109 7.16258 10.4445 5.97798 10.4445 4.5167C10.4445 3.05542 11.6109 1.87082 13.0498 1.87082C14.4886 1.87082 15.655 3.05542 15.655 4.5167ZM17.4971 4.5167C17.4971 7.01121 15.506 9.03341 13.0498 9.03341C12.608 9.03341 12.1814 8.96801 11.7786 8.84622L7.572 16.2459C8.20498 16.8714 8.65516 17.6867 8.83343 18.6013H17.2134C17.6173 16.5291 19.417 14.9666 21.5761 14.9666C24.0323 14.9666 26.0234 16.9888 26.0234 19.4833C26.0234 21.9778 24.0323 24 21.5761 24C19.4543 24 17.6796 22.491 17.2356 20.4722H8.81126C8.36727 22.491 6.59255 24 4.47081 24C2.01459 24 0.0234375 21.9778 0.0234375 19.4833C0.0234375 16.9888 2.01459 14.9666 4.47081 14.9666C5.01318 14.9666 5.53289 15.0652 6.01348 15.2457L10.1606 7.95066C9.20689 7.12224 8.60238 5.89117 8.60238 4.5167C8.60238 2.0222 10.5935 0 13.0498 0C15.506 0 17.4971 2.0222 17.4971 4.5167ZM4.47081 22.1292C5.90965 22.1292 7.07607 20.9446 7.07607 19.4833C7.07607 18.022 5.90965 16.8374 4.47081 16.8374C3.03196 16.8374 1.86554 18.022 1.86554 19.4833C1.86554 20.9446 3.03196 22.1292 4.47081 22.1292ZM21.5761 22.1292C23.0149 22.1292 24.1813 20.9446 24.1813 19.4833C24.1813 18.022 23.0149 16.8374 21.5761 16.8374C20.1372 16.8374 18.9708 18.022 18.9708 19.4833C18.9708 20.9446 20.1372 22.1292 21.5761 22.1292Z" fill="#E14AE4"/>
</svg>
