<svg width="30" height="27" viewBox="0 0 30 27" fill="none" xmlns="http://www.w3.org/2000/svg">
<path d="M14.9693 4.12299C18.9008 4.12299 22.3752 6.13443 25.5751 9.4261C26.6723 10.5233 27.5866 11.8033 28.4094 12.9918C28.5923 13.2661 28.7751 13.449 28.8666 13.7233L29.1409 14.1804C29.2323 14.2719 29.2323 14.3633 29.3237 14.4547L29.4152 14.729C29.598 15.0033 29.598 15.369 29.4152 15.6433C29.4152 15.7347 29.3237 15.7347 29.3237 15.9176L29.2323 16.009C29.1409 16.1919 28.958 16.4662 28.7751 16.649L28.4094 17.1062C27.5865 18.2948 26.5808 19.5747 25.5751 20.6719C22.3751 24.0548 18.9007 26.0661 14.9693 26.0661C11.038 26.0661 7.56345 24.0547 4.36353 20.763C3.26638 19.6659 2.35208 18.3858 1.52924 17.1973C1.34638 16.923 1.16352 16.7401 1.07207 16.4658L0.706354 16.0087C0.614925 15.9172 0.614925 15.8258 0.523495 15.7344L0.432066 15.4601C0.249207 15.1858 0.249207 14.8201 0.432066 14.5458C0.432066 14.4544 0.523495 14.4544 0.523495 14.2715L0.706354 14.1801C0.797783 13.9972 0.980642 13.7229 1.16352 13.5401L1.52924 13.0829C2.35212 11.8943 3.35783 10.6144 4.36353 9.51721C7.56353 6.13431 11.038 4.12299 14.9693 4.12299V4.12299ZM14.9693 5.95157C11.6779 5.95157 8.56949 7.68871 5.64375 10.7059C4.63805 11.8031 3.72371 12.9002 2.99228 14.0888C2.71799 14.4545 2.4437 14.8202 2.26084 15.186L2.35227 15.3688C2.4437 15.5517 2.62656 15.826 2.80944 16.0088L2.9923 16.2831C3.72373 17.3802 4.63803 18.5688 5.64377 19.666C8.56951 22.5003 11.6783 24.2377 14.9694 24.2377C18.2604 24.2377 21.3692 22.5005 24.2949 19.4833C25.3006 18.3862 26.215 17.289 26.9464 16.1004C27.2207 15.7347 27.495 15.369 27.6778 15.0033L27.5864 14.8204C27.495 14.6376 27.3121 14.3633 27.1292 14.1804L26.9464 13.9062C26.215 12.809 25.3007 11.6204 24.2949 10.5233C21.3692 7.68896 18.2604 5.95157 14.9693 5.95157ZM14.9693 9.60875C17.9865 9.60875 20.4551 12.0773 20.4551 15.0945C20.4551 18.1117 17.9865 20.5803 14.9693 20.5803C11.9521 20.5803 9.48357 18.1117 9.48357 15.0945C9.48357 12.0773 11.9521 9.60875 14.9693 9.60875ZM14.9693 11.4373C12.9579 11.4373 11.3122 13.0831 11.3122 15.0945C11.3122 17.106 12.9579 18.7517 14.9693 18.7517C16.9808 18.7517 18.6265 17.106 18.6265 15.0945C18.6265 13.0831 16.9808 11.4373 14.9693 11.4373Z" fill="black"/>
</svg>
