<svg width="30" height="30" viewBox="0 0 30 30" fill="none" xmlns="http://www.w3.org/2000/svg">
<g clip-path="url(#clip0_143_3064)">
<path d="M28.7724 15.0644C28.7724 15.2109 28.7667 15.3574 28.7724 15.5039C28.8403 18.0351 28.121 20.3613 26.8749 22.4941C24.5809 26.4199 21.2222 28.8633 16.8268 29.4961C11.2194 30.3047 6.65419 28.2656 3.22743 23.5957C1.74345 21.5801 0.893838 19.2656 0.644619 16.7578C0.174502 11.9297 1.60751 7.7871 4.99462 4.41796C7.35087 2.07421 10.1942 0.73241 13.4454 0.486316C18.645 0.0937382 22.8704 2.07421 26.0593 6.34569C27.5319 8.3203 28.4042 10.582 28.7044 13.0605C28.7837 13.7226 28.7157 14.3965 28.7157 15.0703C28.7327 15.0644 28.7554 15.0644 28.7724 15.0644ZM11.8255 8.1621C11.2874 8.20311 10.4321 8.24413 9.57685 8.33788C8.3081 8.46679 7.05634 8.6953 5.83856 9.09374C5.13056 9.32811 4.76239 10.0781 4.97763 10.7988C5.19286 11.5137 5.9122 11.918 6.6202 11.7012C8.32509 11.1797 10.0696 10.9629 11.8368 10.9043C13.5474 10.8457 15.2466 10.957 16.9345 11.25C19.0641 11.6191 21.1259 12.2285 23.012 13.3594C23.703 13.7754 24.496 13.582 24.8811 12.9023C25.2663 12.2285 25.0454 11.3965 24.3317 10.998C23.669 10.6289 22.995 10.2656 22.304 9.97265C19.0528 8.59569 15.6374 8.14452 11.8255 8.1621ZM11.9218 13.1836C11.4063 13.2246 10.4774 13.2539 9.56552 13.3945C8.60829 13.541 7.66239 13.7695 6.71649 14.0156C6.00849 14.1973 5.67997 14.959 5.9745 15.6035C6.22938 16.1484 6.75048 16.3711 7.37919 16.1836C9.67313 15.4922 12.0181 15.3398 14.38 15.6035C16.8722 15.8789 19.2397 16.5762 21.4091 17.9238C21.9472 18.2578 22.6042 18.0703 22.9157 17.5371C23.2329 16.9922 23.063 16.3008 22.5136 15.9609C22.1341 15.7266 21.7489 15.498 21.3524 15.2988C18.5147 13.8398 15.4845 13.2305 11.9218 13.1836ZM21.3071 21.0469C21.3128 20.6777 21.1485 20.3965 20.8427 20.2383C19.9534 19.7871 19.0811 19.2949 18.1579 18.9375C16.2095 18.1758 14.1761 17.9414 12.0974 17.9824C10.4661 18.0176 8.86317 18.2519 7.27724 18.6094C6.70517 18.7383 6.37665 19.1894 6.48427 19.6875C6.60888 20.2617 7.03935 20.5254 7.6454 20.3848C9.64481 19.9336 11.6612 19.6875 13.7116 19.834C15.1616 19.9394 16.5776 20.209 17.92 20.7832C18.6167 21.082 19.2794 21.4512 19.9477 21.8086C20.6048 22.166 21.3071 21.7793 21.3071 21.0469Z" fill="black"/>
</g>
<defs>
<clipPath id="clip0_143_3064">
<rect width="29" height="30" fill="white" transform="translate(0.0556641)"/>
</clipPath>
</defs>
</svg>
