<svg width="35" height="24" viewBox="0 0 35 24" fill="none" xmlns="http://www.w3.org/2000/svg">
<path d="M27.6278 22.8942C27.198 23.5993 26.2751 23.8228 25.5701 23.3901C19.9352 19.948 12.8416 19.1685 4.48747 21.0772C3.68244 21.2606 2.87999 20.7562 2.69658 19.9509C2.5123 19.1456 3.01469 18.3431 3.82172 18.1597C12.9639 16.0701 20.8059 16.9703 27.132 20.8365C27.8371 21.2692 28.0606 22.1892 27.6278 22.8942ZM30.5654 16.3584C30.0237 17.2397 28.8716 17.5177 27.9918 16.976C21.5407 13.0098 11.7069 11.8614 4.0765 14.1777C3.08691 14.4766 2.04172 13.9189 1.74137 12.931C1.44332 11.9414 2.00131 10.8982 2.98918 10.5973C11.7052 7.95255 22.5409 9.23363 29.9492 13.7862C30.829 14.3279 31.107 15.4797 30.5654 16.3584ZM30.8176 9.55348C23.0825 4.95905 10.3207 4.53661 2.93559 6.77808C1.74968 7.13775 0.495567 6.46827 0.136183 5.28233C-0.2232 4.09582 0.4457 2.84254 1.63247 2.482C10.1101 -0.0916346 24.2031 0.405609 33.1086 5.69245C34.1776 6.32554 34.5272 7.70321 33.8938 8.76849C33.2633 9.8352 31.882 10.1869 30.8187 9.55348H30.8176Z" fill="#F2F2F2"/>
</svg>
