<svg width="48" height="48" viewBox="0 0 48 48" fill="none" xmlns="http://www.w3.org/2000/svg">
<path d="M23.9999 0C10.7454 0 0 10.7454 0 24.0001C0 37.2555 10.7454 48 23.9999 48C37.2558 48 48 37.2555 48 24.0001C48 10.7462 37.2558 0.00114638 23.9996 0.00114638L23.9999 0ZM35.4128 34.6151C34.9829 35.3201 34.0601 35.5437 33.3551 35.1109C27.7202 31.6689 20.6265 30.8893 12.2724 32.7981C11.4674 32.9815 10.665 32.4771 10.4815 31.6718C10.2973 30.8664 10.7997 30.0639 11.6067 29.8805C20.7489 27.791 28.5908 28.6911 34.917 32.5573C35.622 32.9901 35.8456 33.9101 35.4128 34.6151ZM38.3504 28.0793C37.8087 28.9605 36.6566 29.2385 35.7768 28.6969C29.3257 24.7307 19.4919 23.5823 11.8615 25.8986C10.8719 26.1975 9.82669 25.6398 9.52634 24.6519C9.22829 23.6622 9.78628 22.619 10.7742 22.3181C19.4902 19.6734 30.3259 20.9545 37.7342 25.5071C38.614 26.0487 38.892 27.2009 38.3504 28.0796V28.0793ZM38.6026 21.2743C30.8675 16.6799 18.1057 16.2575 10.7206 18.4989C9.53465 18.8586 8.28054 18.1891 7.92115 17.0032C7.56177 15.8167 8.23067 14.5634 9.41744 14.2029C17.895 11.6292 31.9881 12.1265 40.8935 17.4133C41.9625 18.0464 42.3122 19.4241 41.6788 20.4893C41.0483 21.556 39.6669 21.9077 38.6037 21.2743H38.6026Z" fill="#0BE193"/>
</svg>
