<svg width="48" height="48" viewBox="0 0 48 48" fill="none" xmlns="http://www.w3.org/2000/svg">
<path fill-rule="evenodd" clip-rule="evenodd" d="M24 48C37.2548 48 48 37.2548 48 24C48 10.7452 37.2548 0 24 0C10.7452 0 0 10.7452 0 24C0 37.2548 10.7452 48 24 48ZM37.4851 15.7891C38.4923 15.7891 38.7026 16.2983 38.4923 16.99H38.491C38.0691 18.8941 34.0153 24.501 34.0153 24.501C33.6631 25.0546 33.5225 25.3321 34.0153 25.9541C34.1895 26.1932 34.5604 26.5499 34.9846 26.9579C35.421 27.3777 35.9138 27.8517 36.307 28.3079C37.7347 29.8876 38.8115 31.219 39.113 32.1362C39.3867 33.0585 38.9103 33.5247 37.9602 33.5247H34.6348C33.7431 33.5247 33.2946 33.0345 32.3249 31.9747C31.9143 31.5259 31.4101 30.975 30.7393 30.3158C28.7656 28.4472 27.9206 28.204 27.4265 28.204C26.7564 28.204 26.5562 28.3902 26.5562 29.3239V32.254C26.5562 33.0585 26.2953 33.5247 24.1809 33.5247C20.6553 33.5247 16.7852 31.423 14.0362 27.5465C9.91263 21.8698 8.78516 17.5778 8.78516 16.7138C8.78516 16.2287 8.97518 15.7891 9.9253 15.7891H13.2533C14.1033 15.7891 14.4225 16.1539 14.738 17.0597C16.3659 21.714 19.1085 25.7818 20.236 25.7818C20.6591 25.7818 20.853 25.5905 20.853 24.5352V19.7238C20.777 18.3546 20.2898 17.7622 19.9289 17.3235C19.7062 17.0528 19.5317 16.8405 19.5317 16.5403C19.5317 16.1742 19.8496 15.7891 20.3779 15.7891H25.6074C26.3117 15.7891 26.5448 16.159 26.5448 16.99V23.4622C26.5448 24.1552 26.8628 24.3972 27.0744 24.3972C27.4975 24.3972 27.8496 24.1552 28.6249 23.3926C31.0205 20.7626 32.7117 16.7138 32.7117 16.7138C32.9233 16.2287 33.3135 15.7891 34.1597 15.7891H37.4851Z" fill="#E14AE4"/>
</svg>
