<svg width="48" height="48" viewBox="0 0 48 48" fill="none" xmlns="http://www.w3.org/2000/svg">
<path fill-rule="evenodd" clip-rule="evenodd" d="M24 48C37.2548 48 48 37.2548 48 24C48 10.7452 37.2548 0 24 0C10.7452 0 0 10.7452 0 24C0 37.2548 10.7452 48 24 48ZM41.1298 16.4087C41.2087 16.3076 41.2456 16.1966 41.2456 16.0757L41.2469 16.0658C41.2469 15.824 41.1754 15.7044 41.0313 15.7044C40.5398 15.7044 39.9879 15.7364 39.3744 15.7981C38.783 15.8586 38.2595 15.8906 37.8098 15.8906C37.3799 15.8906 36.8477 15.8598 36.2133 15.8006C35.5271 15.7389 34.9345 15.7081 34.4344 15.7081C34.2496 15.7081 34.1584 15.8475 34.1584 16.1275C34.1584 16.41 34.22 16.5518 34.3432 16.5518C35.7131 16.6135 36.4005 17.1476 36.4005 18.1592C36.4005 18.581 36.297 19.0448 36.0925 19.5506L30.1916 33.2777L26.2052 25.1362L29.1494 19.6715C29.8763 18.3972 30.4824 17.5781 30.9702 17.2167C31.4507 16.8565 32.0974 16.6357 32.892 16.5555C33.1162 16.5555 33.2296 16.3927 33.2296 16.072C33.2296 15.8302 33.168 15.7105 33.0448 15.7105C32.5249 15.7105 31.872 15.7463 31.0959 15.8178C30.4811 15.8672 30.0155 15.8919 29.6976 15.8919C29.2591 15.8919 28.6961 15.861 28.0099 15.7993C27.2954 15.7377 26.6918 15.7081 26.199 15.7081C26.1374 15.7081 26.0758 15.7525 26.0142 15.8438C25.9526 15.9326 25.9218 16.0313 25.9218 16.1299C25.9218 16.4124 25.9834 16.5568 26.1066 16.5568C27.4777 16.6184 28.1639 17.123 28.1639 18.0703C28.1639 18.4725 28.0099 18.9671 27.7044 19.5555L25.487 23.6818L23.2621 19.1608C22.9467 18.5119 22.7866 18.0309 22.7866 17.7225C22.7866 17.0317 23.4728 16.6406 24.8439 16.5481C24.9461 16.5481 24.9979 16.41 24.9979 16.1262C24.9979 15.845 24.9153 15.7031 24.7515 15.7031C24.0549 15.7041 23.3586 15.7354 22.6646 15.7969C21.9785 15.8586 21.3292 15.8906 20.7157 15.8906C20.0912 15.8906 19.5023 15.861 18.9504 15.7993C18.3763 15.7377 17.7468 15.7081 17.0619 15.7081C16.9177 15.7081 16.8475 15.8487 16.8475 16.1275C16.8453 16.2346 16.8801 16.3392 16.9461 16.4235C17.0126 16.5086 17.0816 16.5518 17.1555 16.5518C17.9427 16.6345 18.5316 16.8577 18.9196 17.2241C19.3089 17.5892 19.8066 18.4059 20.4102 19.674L23.7758 26.7275L20.0924 33.5861L13.8195 19.1781C13.6556 18.808 13.5731 18.4996 13.5731 18.2529C13.5731 17.7681 13.7702 17.3771 14.1644 17.0773C14.5586 16.7788 15.0982 16.6024 15.7844 16.5531C15.8879 16.5531 15.9371 16.4124 15.9371 16.1312C15.9371 15.8487 15.8558 15.7068 15.6932 15.7068C14.904 15.7112 14.1151 15.7424 13.3279 15.8006C12.4767 15.8623 11.74 15.8931 11.1154 15.8931C10.5007 15.8931 9.8453 15.866 9.14927 15.8043C8.40273 15.7426 7.68329 15.7118 6.99834 15.7118C6.83327 15.7118 6.75196 15.8524 6.75196 16.1312C6.75139 16.2401 6.79085 16.3455 6.86283 16.4272C6.93305 16.5123 7.01189 16.558 7.0932 16.558C8.0467 16.6616 8.78585 16.9318 9.31558 17.3697C9.84777 17.8076 10.3553 18.5773 10.8358 19.6801L18.5266 37.3374C18.5968 37.5014 18.7459 37.5841 18.9701 37.5841C19.0576 37.5862 19.144 37.5643 19.22 37.5208C19.296 37.4774 19.3587 37.4139 19.4013 37.3374L24.4472 28.1658L28.8427 37.3411C28.8851 37.4172 28.9474 37.4804 29.0229 37.5239C29.0984 37.5674 29.1843 37.5894 29.2714 37.5878C29.5055 37.5878 29.6508 37.5051 29.7026 37.3411L37.5326 19.6801C38.0464 18.5058 38.5428 17.7101 39.0233 17.2932C39.5037 16.8762 40.1234 16.6308 40.8773 16.5592C40.9697 16.5592 41.0535 16.5074 41.1298 16.4087Z" fill="#0BE193"/>
</svg>
