<svg width="36" height="23" viewBox="0 0 36 23" fill="none" xmlns="http://www.w3.org/2000/svg">
<path d="M35.1065 0.672921C35.1065 0.794949 35.0688 0.907016 34.9886 1.00912C34.9109 1.10874 34.8256 1.16103 34.7316 1.16103C33.9642 1.23325 33.3336 1.48105 32.8446 1.90192C32.3556 2.32279 31.8503 3.12594 31.3275 4.31135L23.3583 22.1387C23.3057 22.3043 23.1577 22.3877 22.9195 22.3877C22.8309 22.3894 22.7435 22.3671 22.6666 22.3232C22.5897 22.2793 22.5263 22.2156 22.4832 22.1387L18.0096 12.877L12.874 22.1349C12.8307 22.2122 12.7669 22.2762 12.6895 22.3201C12.6122 22.364 12.5243 22.3861 12.4352 22.384C12.207 22.384 12.0553 22.3005 11.9838 22.1349L4.15636 4.31135C3.66738 3.19816 3.15081 2.42116 2.60917 1.97912C2.07003 1.53708 1.31775 1.26438 0.347309 1.15979C0.264558 1.15979 0.184315 1.11372 0.112848 1.0278C0.0395905 0.945306 -0.000571261 0.838944 6.14042e-06 0.728954C6.14042e-06 0.447543 0.0827571 0.305591 0.250767 0.305591C0.94788 0.305591 1.6801 0.336721 2.4399 0.39898C3.1483 0.46124 3.81532 0.488634 4.44097 0.488634C5.07665 0.488634 5.82642 0.457504 6.6928 0.395245C7.49392 0.336551 8.29682 0.304988 9.1001 0.300611C9.2656 0.300611 9.34835 0.443807 9.34835 0.728954C9.34835 1.01286 9.2982 1.15481 9.19288 1.15481C8.49451 1.20461 7.94535 1.38268 7.54413 1.68401C7.14291 1.98659 6.94231 2.38131 6.94231 2.87067C6.94231 3.11971 7.02631 3.431 7.19307 3.80456L13.5774 18.3483L17.3263 11.4251L13.9009 4.30513C13.2865 3.02508 12.78 2.20076 12.3838 1.83219C11.9889 1.46237 11.3895 1.23699 10.5884 1.15356C10.5131 1.15356 10.4429 1.10998 10.3752 1.02406C10.3081 0.938895 10.2727 0.833333 10.2749 0.725218C10.2749 0.443807 10.3464 0.301856 10.4931 0.301856C11.1902 0.301856 11.8309 0.33174 12.4151 0.393999C12.9769 0.456259 13.5762 0.486143 14.2118 0.486143C14.8362 0.486143 15.497 0.453769 16.1954 0.391509C16.9016 0.329472 17.6103 0.297898 18.3193 0.296875C18.4861 0.296875 18.5701 0.440071 18.5701 0.723973C18.5701 1.01037 18.5174 1.14983 18.4133 1.14983C17.0179 1.24322 16.3195 1.63794 16.3195 2.33524C16.3195 2.64654 16.4825 3.13216 16.8035 3.78713L19.0678 8.35073L21.3247 4.18559C21.6356 3.59163 21.7923 3.09232 21.7923 2.68638C21.7923 1.73008 21.094 1.2208 19.6985 1.15854C19.5731 1.15854 19.5104 1.01286 19.5104 0.727709C19.5104 0.628094 19.5418 0.528479 19.6044 0.438826C19.6671 0.346682 19.7298 0.301856 19.7925 0.301856C20.294 0.301856 20.9084 0.33174 21.6356 0.393999C22.334 0.456259 22.907 0.487388 23.3533 0.487388C23.6768 0.487388 24.1507 0.462484 24.7764 0.412677C25.5663 0.340456 26.2308 0.304346 26.7599 0.304346C26.8853 0.304346 26.948 0.425129 26.948 0.669186C26.948 0.992934 26.8326 1.1573 26.6044 1.1573C25.7957 1.23823 25.1375 1.46112 24.6485 1.82472C24.152 2.18956 23.5351 3.01636 22.7954 4.30264L19.7988 9.8188L23.8561 18.037L29.8618 4.18061C30.0699 3.67008 30.1752 3.20189 30.1752 2.77604C30.1752 1.75499 29.4756 1.21582 28.0814 1.15356C27.956 1.15356 27.8933 1.01037 27.8933 0.725218C27.8933 0.442561 27.9861 0.301856 28.1742 0.301856C28.6832 0.301856 29.2863 0.332985 29.9847 0.395245C30.6304 0.455013 31.172 0.486143 31.6096 0.486143C32.0672 0.486143 32.6001 0.453768 33.2019 0.392754C33.8263 0.330495 34.388 0.29812 34.8883 0.29812C35.035 0.29812 35.1077 0.418903 35.1077 0.66296L35.1065 0.672921Z" fill="#101010"/>
</svg>
