<svg width="36" height="23" viewBox="0 0 36 23" fill="none" xmlns="http://www.w3.org/2000/svg">
<path d="M35.0367 1.35496C35.0367 1.47585 34.9997 1.58687 34.9209 1.68802C34.8445 1.78671 34.7607 1.83852 34.6683 1.83852C33.9144 1.91006 33.2947 2.15554 32.8143 2.57249C32.3338 2.98943 31.8374 3.78508 31.3237 4.95943L23.4936 22.6204C23.4419 22.7844 23.2965 22.8671 23.0624 22.8671C22.9753 22.8687 22.8895 22.8466 22.8139 22.8032C22.7384 22.7597 22.6761 22.6965 22.6337 22.6204L18.2382 13.4451L13.1923 22.6167C13.1497 22.6932 13.087 22.7567 13.011 22.8001C12.935 22.8436 12.8486 22.8655 12.7611 22.8634C12.5369 22.8634 12.3879 22.7807 12.3176 22.6167L4.62678 4.95943C4.14633 3.85663 3.63878 3.08688 3.10659 2.64897C2.57687 2.21105 1.83772 1.9409 0.884216 1.83728C0.802909 1.83728 0.724067 1.79164 0.653847 1.70652C0.581868 1.6248 0.542407 1.51943 0.542975 1.41047C0.542975 1.13168 0.624281 0.991057 0.789358 0.991057C1.4743 0.991057 2.19374 1.0219 2.94029 1.08357C3.63632 1.14525 4.2917 1.17239 4.90642 1.17239C5.53101 1.17239 6.26769 1.14155 7.11895 1.07987C7.90608 1.02173 8.69497 0.990459 9.48423 0.986123C9.64684 0.986123 9.72815 1.12798 9.72815 1.41047C9.72815 1.69172 9.67887 1.83235 9.57539 1.83235C8.88921 1.88169 8.34963 2.05809 7.95542 2.35661C7.56121 2.65637 7.3641 3.04741 7.3641 3.5322C7.3641 3.77891 7.44664 4.0873 7.61048 4.45737L13.8834 18.8654L17.5668 12.0068L14.2012 4.95327C13.5976 3.68516 13.0999 2.86854 12.7106 2.50341C12.3226 2.13704 11.7337 1.91376 10.9465 1.83111C10.8726 1.83111 10.8036 1.78794 10.7371 1.70282C10.6712 1.61845 10.6364 1.51387 10.6385 1.40677C10.6385 1.12798 10.7088 0.987356 10.8529 0.987356C11.5378 0.987356 12.1673 1.01696 12.7414 1.07864C13.2933 1.14032 13.8822 1.16992 14.5068 1.16992C15.1203 1.16992 15.7695 1.13785 16.4556 1.07617C17.1496 1.01471 17.8459 0.983435 18.5425 0.982422C18.7064 0.982422 18.7889 1.12428 18.7889 1.40553C18.7889 1.68925 18.7372 1.82741 18.6349 1.82741C17.2638 1.91993 16.5776 2.31097 16.5776 3.00177C16.5776 3.31016 16.7378 3.79125 17.0531 4.4401L19.278 8.96111L21.4954 4.83484C21.8009 4.24643 21.9549 3.75177 21.9549 3.34963C21.9549 2.40225 21.2687 1.89773 19.8976 1.83605C19.7744 1.83605 19.7128 1.69172 19.7128 1.40924C19.7128 1.31055 19.7436 1.21186 19.8052 1.12305C19.8668 1.03176 19.9284 0.987356 19.99 0.987356C20.4828 0.987356 21.0864 1.01696 21.8009 1.07864C22.4871 1.14032 23.0501 1.17116 23.4887 1.17116C23.8065 1.17116 24.2722 1.14649 24.8869 1.09714C25.663 1.0256 26.3159 0.989823 26.8358 0.989823C26.959 0.989823 27.0206 1.10948 27.0206 1.35126C27.0206 1.67198 26.9072 1.83481 26.683 1.83481C25.8884 1.915 25.2417 2.1358 24.7612 2.49601C24.2734 2.85744 23.6673 3.67653 22.9405 4.9508L19.9962 10.4155L23.9827 18.557L29.8835 4.82991C30.088 4.32415 30.1915 3.86033 30.1915 3.43845C30.1915 2.42693 29.5041 1.89279 28.1342 1.83111C28.011 1.83111 27.9494 1.68925 27.9494 1.40677C27.9494 1.12675 28.0406 0.987356 28.2254 0.987356C28.7255 0.987356 29.3181 1.0182 30.0043 1.07987C30.6387 1.13908 31.1709 1.16992 31.6008 1.16992C32.0505 1.16992 32.5741 1.13785 33.1654 1.07741C33.7789 1.01573 34.3308 0.983655 34.8223 0.983655C34.9664 0.983655 35.0379 1.10331 35.0379 1.34509L35.0367 1.35496Z" fill="#F2F2F2"/>
</svg>
