<svg width="40" height="30" viewBox="0 0 40 30" fill="none" xmlns="http://www.w3.org/2000/svg">
<path d="M38.8317 6.82235C38.8317 3.40286 36.3165 0.652071 33.2086 0.652071C28.9988 0.455261 24.7054 0.379272 20.3179 0.379272H18.9501C14.5731 0.379272 10.2722 0.455261 6.0624 0.652831C2.96207 0.652831 0.446842 3.41882 0.446842 6.8383C0.256871 9.54274 0.176323 12.2479 0.180882 14.9531C0.173283 17.6583 0.259404 20.3661 0.439243 23.0763C0.439243 26.4958 2.95447 29.2694 6.0548 29.2694C10.4773 29.4746 15.0139 29.5657 19.6264 29.5581C24.2465 29.5733 28.7703 29.4771 33.1979 29.2694C36.3059 29.2694 38.8211 26.4958 38.8211 23.0763C39.0035 20.3635 39.0871 17.6583 39.0795 14.9455C39.0967 12.2403 39.0141 9.53261 38.8317 6.82235ZM15.9105 22.4076V7.47585L26.9289 14.9379L15.9105 22.4076Z" fill="black"/>
</svg>
