<svg width="48" height="48" viewBox="0 0 48 48" fill="none" xmlns="http://www.w3.org/2000/svg">
<path fill-rule="evenodd" clip-rule="evenodd" d="M24 48C37.2548 48 48 37.2548 48 24C48 10.7452 37.2548 0 24 0C10.7452 0 0 10.7452 0 24C0 37.2548 10.7452 48 24 48ZM33.9393 13.7033C36.2142 13.7033 38.0553 15.6743 38.0553 18.1244C38.1888 20.0664 38.2492 22.0065 38.2366 23.9449C38.2422 25.8887 38.181 27.827 38.0475 29.7708C38.0475 32.2209 36.2064 34.2083 33.9315 34.2083C30.6906 34.3571 27.3793 34.4261 23.9975 34.4152C20.6213 34.4206 17.3007 34.3553 14.0635 34.2083C11.7942 34.2083 9.95312 32.2209 9.95312 29.7708C9.82149 27.8288 9.75845 25.8887 9.76401 23.9503C9.76067 22.012 9.81963 20.0737 9.95868 18.1359C9.95868 15.6857 11.7998 13.7038 14.0691 13.7038C17.1505 13.5623 20.2987 13.5078 23.5025 13.5078H24.5037C27.7153 13.5078 30.8579 13.5623 33.9393 13.7033ZM21.2776 18.5927V29.2917L29.3428 23.9394L21.2776 18.5927Z" fill="#0BE193"/>
</svg>
