<svg width="29" height="22" viewBox="0 0 29 22" fill="none" xmlns="http://www.w3.org/2000/svg">
<path d="M28.4987 5.40373C28.4987 2.95358 26.6576 0.982576 24.3827 0.982576C21.3012 0.841557 18.1586 0.787109 14.947 0.787109H13.9459C10.7421 0.787109 7.5939 0.841557 4.51247 0.983121C2.24311 0.983121 0.402044 2.96502 0.402044 5.41516C0.262991 7.35295 0.204032 9.29129 0.207369 11.2296C0.201807 13.168 0.264845 15.1081 0.396482 17.0501C0.396482 19.5002 2.23755 21.4876 4.50691 21.4876C7.74407 21.6346 11.0647 21.6999 14.4409 21.6945C17.8227 21.7054 21.134 21.6364 24.3749 21.4876C26.6498 21.4876 28.4909 19.5002 28.4909 17.0501C28.6244 15.1063 28.6855 13.168 28.68 11.2242C28.6926 9.28585 28.6321 7.34569 28.4987 5.40373ZM11.721 16.5709V5.87198L19.7861 11.2187L11.721 16.5709Z" fill="#F2F2F2"/>
</svg>
